<svg xmlns="http://www.w3.org/2000/svg" viewBox="0 0 101.215 30.952"><path d="M-82.37-14.99v-1.5c-.99 1.17-2.7 1.86-4.59 1.86-2.31 0-5.04-1.56-5.04-4.8 0-3.39 2.73-4.68 5.04-4.68 1.92 0 3.63.63 4.59 1.77v-1.95c0-1.47-1.26-2.43-3.18-2.43-1.56 0-3 .57-4.23 1.71l-1.44-2.55c1.77-1.56 4.05-2.28 6.33-2.28 3.3 0 6.33 1.32 6.33 5.49v9.358h-3.81zm0-3.48v-1.8c-.63-.84-1.83-1.26-3.06-1.26-1.5 0-2.73.78-2.73 2.19 0 1.35 1.23 2.13 2.73 2.13 1.23 0 2.43-.42 3.06-1.26zM-58.81-14.99v-9.15c0-1.35-.6-2.31-2.16-2.31-1.35 0-2.46.9-3 1.68v9.78h-3.84v-9.15c0-1.35-.6-2.31-2.16-2.31-1.32 0-2.43.9-3 1.71v9.75h-3.81v-14.49h3.81v1.89c.6-.87 2.52-2.25 4.74-2.25 2.13 0 3.48.99 4.02 2.64.84-1.32 2.76-2.64 4.98-2.64 2.67 0 4.26 1.41 4.26 4.38v10.47h-3.84zM-42-14.99v-2.31c-1.022 1.5-2.88 2.67-5.04 2.67-3.84 0-6.45-2.94-6.45-7.59 0-4.59 2.61-7.62 6.45-7.62 2.07 0 3.9 1.05 5.04 2.7V-35h1.59v20.01H-42zm0-3.63v-7.17c-.84-1.41-2.73-2.64-4.77-2.64-3.21 0-5.07 2.7-5.07 6.21s1.86 6.18 5.07 6.18c2.04 0 3.93-1.2 4.77-2.58zM-38.36-22.25c0-4.23 2.7-7.59 6.93-7.59 4.29 0 6.99 3.36 6.99 7.59s-2.7 7.62-6.99 7.62c-4.23 0-6.93-3.39-6.93-7.62zm12.24 0c0-3.21-1.89-6.18-5.31-6.18-3.36 0-5.28 2.97-5.28 6.18 0 3.24 1.92 6.21 5.28 6.21 3.42 0 5.31-2.97 5.31-6.21z" fill="none"/><path d="M-24.02-5.99c.33.15 2.364-1.248 2.787-1.608.562-.48 1.458-3.52 1.917-4.583l.826-2.69-6.15-14.608h1.74l5.28 12.658 5.22-12.658h1.77l-8.08 20.36c-.174.518-.96 2.667-2.397 3.583-.43.274-3.484 1.62-3.875 1.5l.96-1.956zM-8.99-14.99V-35h1.56v20.01h-1.56zM-4.696-19.24c-1.832-3.777-.667-8.11 2.95-9.865 3.968-1.924 7.673.147 9.505 3.925l.183.38-10.905 5.288c1.51 2.768 4.538 4.2 7.615 2.708 1.647-.8 2.857-2.153 3.388-3.878l1.175.565c-.642 1.978-1.922 3.532-4.08 4.58-3.807 1.845-7.88.32-9.83-3.702zm3.513-8.637C-4.26-26.385-4.49-22.94-3.498-20.62l9.474-4.593c-1.1-2.202-3.893-4.248-7.16-2.664zM-87.023-5.99l-1.62-4.954-1.63 4.953h-.6l-1.883-5.794h.672l1.535 4.918 1.632-4.918h.54l1.63 4.918 1.535-4.918h.672l-1.884 5.793h-.6zM-84.72-8.894c0-1.68 1.175-3.033 2.782-3.033 1.763 0 2.734 1.39 2.734 3.07v.167h-4.846c.06 1.26.9 2.303 2.267 2.303.73 0 1.403-.275 1.896-.804l.323.407c-.575.6-1.308.936-2.267.936-1.69 0-2.89-1.26-2.89-3.047zm2.77-2.494c-1.367 0-2.05 1.2-2.1 2.207h4.21c-.012-.985-.66-2.208-2.11-2.208zM-78.63-5.99v-8h.625v3.142c.468-.66 1.2-1.078 2.015-1.078 1.547 0 2.59 1.21 2.59 3.045 0 1.858-1.055 3.034-2.59 3.034-.863 0-1.607-.468-2.015-1.067v.923h-.624zm2.532-.42c1.295 0 2.026-1.067 2.026-2.472 0-1.402-.73-2.482-2.026-2.482-.804 0-1.57.504-1.907 1.056v2.866c.336.552 1.104 1.03 1.907 1.03zM-66.47-5.99v-.924c-.41.6-1.153 1.067-2.017 1.067-1.535 0-2.578-1.176-2.578-3.035 0-1.834 1.043-3.045 2.578-3.045.828 0 1.56.42 2.016 1.078v-3.14h.634v7.998h-.635zm0-1.452v-2.866c-.337-.563-1.093-1.056-1.91-1.056-1.282 0-2.025 1.08-2.025 2.482 0 1.404.743 2.47 2.026 2.47.818 0 1.573-.478 1.91-1.03zM-65.25-8.894c0-1.68 1.177-3.033 2.783-3.033 1.764 0 2.734 1.39 2.734 3.07v.167h-4.845c.06 1.26.9 2.303 2.267 2.303.73 0 1.402-.275 1.894-.804l.324.407c-.576.6-1.307.936-2.267.936-1.69 0-2.89-1.26-2.89-3.047zm2.77-2.494c-1.366 0-2.05 1.2-2.098 2.207h4.21c-.01-.985-.66-2.208-2.11-2.208zM-57.598-5.99l-2.447-5.794h.696l2.11 5.062 2.088-5.062h.708L-56.89-5.99h-.708zM-53.745-8.894c0-1.68 1.176-3.033 2.782-3.033 1.764 0 2.734 1.39 2.734 3.07v.167h-4.844c.06 1.26.9 2.303 2.267 2.303.73 0 1.403-.275 1.895-.804l.324.407c-.576.6-1.307.936-2.267.936-1.69 0-2.89-1.26-2.89-3.047zm2.77-2.494c-1.367 0-2.05 1.2-2.1 2.207h4.21c-.01-.985-.658-2.208-2.11-2.208zM-47.653-5.99v-8h.624v8h-.623zM-46.445-8.894c0-1.69 1.08-3.033 2.77-3.033 1.717 0 2.795 1.343 2.795 3.033s-1.078 3.047-2.794 3.047c-1.69 0-2.77-1.355-2.77-3.047zm4.893 0c0-1.283-.756-2.47-2.123-2.47-1.343 0-2.11 1.187-2.11 2.47 0 1.296.768 2.482 2.11 2.482 1.367 0 2.123-1.186 2.123-2.482zM-39.682-6.927v3.143h-.623v-8h.623v.912c.408-.588 1.15-1.055 2.015-1.055 1.548 0 2.59 1.175 2.59 3.033 0 1.848-1.042 3.047-2.59 3.047-.815 0-1.547-.42-2.015-1.08zm3.934-1.967c0-1.402-.73-2.47-2.027-2.47-.803 0-1.57.48-1.906 1.03v2.867c.335.552 1.103 1.055 1.905 1.055 1.296 0 2.027-1.077 2.027-2.482zM-33.86-8.894c0-1.68 1.174-3.033 2.78-3.033 1.764 0 2.735 1.39 2.735 3.07v.167h-4.845c.06 1.26.898 2.303 2.266 2.303.732 0 1.404-.275 1.896-.804l.323.407c-.575.6-1.307.936-2.266.936-1.692 0-2.89-1.26-2.89-3.047zm2.768-2.494c-1.367 0-2.05 1.2-2.098 2.207h4.21c-.012-.985-.66-2.208-2.112-2.208z" fill="none"/><path d="M-26.77-5.99v-5.794h.623v.996c.492-.647 1.152-1.115 1.955-1.115v.684c-.107-.022-.19-.022-.312-.022-.588 0-1.38.527-1.644 1.03v4.222h-.622z" fill="none"/><path d="M9.63 20.01v-1.5c-.99 1.17-2.7 1.86-4.59 1.86-2.31 0-5.04-1.56-5.04-4.8 0-3.39 2.73-4.68 5.04-4.68 1.92 0 3.63.63 4.59 1.77v-1.95c0-1.47-1.26-2.43-3.18-2.43-1.56 0-3 .57-4.23 1.71L.78 7.44c1.77-1.56 4.05-2.28 6.33-2.28 3.3 0 6.33 1.32 6.33 5.49v9.358H9.63zm0-3.48v-1.8c-.63-.84-1.83-1.26-3.06-1.26-1.5 0-2.73.78-2.73 2.19 0 1.35 1.23 2.13 2.73 2.13 1.23 0 2.43-.42 3.06-1.26zM33.19 20.01v-9.15c0-1.35-.6-2.31-2.16-2.31-1.35 0-2.46.9-3 1.68v9.778h-3.84V10.86c0-1.35-.6-2.31-2.16-2.31-1.32 0-2.43.9-3 1.71v9.748h-3.81V5.52h3.81v1.89c.6-.87 2.52-2.25 4.74-2.25 2.13 0 3.48.99 4.02 2.64.84-1.32 2.76-2.64 4.98-2.64 2.67 0 4.26 1.41 4.26 4.38v10.47h-3.84zM50 20.01V17.7c-1.022 1.5-2.88 2.67-5.04 2.67-3.84 0-6.45-2.94-6.45-7.59 0-4.59 2.61-7.62 6.45-7.62 2.07 0 3.9 1.05 5.04 2.7V0h1.59v20.01H50zm0-3.63V9.21c-.84-1.41-2.73-2.64-4.77-2.64-3.21 0-5.07 2.7-5.07 6.21s1.86 6.18 5.07 6.18c2.04 0 3.93-1.2 4.77-2.58zM53.64 12.75c0-4.23 2.7-7.59 6.93-7.59 4.29 0 6.99 3.36 6.99 7.59s-2.7 7.62-6.99 7.62c-4.23 0-6.93-3.39-6.93-7.62zm12.24 0c0-3.21-1.89-6.18-5.31-6.18-3.36 0-5.28 2.97-5.28 6.18 0 3.24 1.92 6.21 5.28 6.21 3.42 0 5.31-2.97 5.31-6.21zM68.89 24.24c.33.15.9.24 1.26.24.96 0 1.62-.392 2.22-1.772l1.14-2.58L67.36 5.52h1.74l5.28 12.658L79.6 5.52h1.77l-7.5 17.67c-.78 1.83-2.01 2.7-3.69 2.7-.51 0-1.17-.09-1.56-.21l.27-1.44zM83.01 20.01V0h1.56v20.01h-1.56zM87.304 15.76c-1.832-3.777-.667-8.11 2.95-9.865 3.968-1.924 7.673.147 9.505 3.925l.183.38-10.905 5.287c1.51 2.768 4.538 4.2 7.615 2.708 1.647-.8 2.857-2.153 3.388-3.878l1.175.565c-.642 1.978-1.922 3.532-4.08 4.58-3.807 1.846-7.88.322-9.83-3.7zm3.513-8.637c-3.077 1.492-3.307 4.938-2.315 7.258l9.474-4.593c-1.1-2.202-3.893-4.248-7.16-2.664z" fill="#FF5962"/><path d="M10.224 28.91l-1.416-4.333-1.426 4.332h-.525L5.21 23.84h.588l1.343 4.3 1.427-4.3h.47l1.427 4.3 1.343-4.3h.588l-1.647 5.067h-.524zM12.396 26.333c0-1.468 1.028-2.653 2.434-2.653 1.542 0 2.392 1.216 2.392 2.685v.146h-4.238c.053 1.103.787 2.015 1.982 2.015.64 0 1.227-.24 1.658-.703l.283.357c-.503.523-1.144.817-1.982.817-1.48 0-2.53-1.1-2.53-2.664zm2.423-2.182c-1.197 0-1.795 1.05-1.837 1.93h3.68c-.01-.86-.575-1.93-1.844-1.93zM17.767 28.91v-6.997h.546v2.748c.41-.576 1.05-.942 1.762-.942 1.353 0 2.266 1.06 2.266 2.663 0 1.627-.922 2.656-2.265 2.656-.755 0-1.406-.41-1.762-.934v.807h-.546zm2.214-.37c1.134 0 1.773-.932 1.773-2.16 0-1.227-.64-2.17-1.772-2.17-.702 0-1.373.44-1.667.922v2.507c.294.483.965.9 1.668.9zM27.902 28.877v-.807c-.357.524-1.008.934-1.763.934-1.344 0-2.256-1.028-2.256-2.655 0-1.605.912-2.664 2.255-2.664.723 0 1.362.366 1.762.943v-2.75h.555v6.997h-.555zm0-1.27v-2.506c-.294-.492-.955-.922-1.67-.922-1.12 0-1.77.945-1.77 2.17 0 1.23.65 2.162 1.77 2.162.715 0 1.376-.418 1.67-.902zM29.003 26.4c0-1.467 1.028-2.652 2.433-2.652 1.543 0 2.392 1.216 2.392 2.685v.146H29.59c.053 1.1.788 2.013 1.983 2.013.64 0 1.227-.24 1.657-.703l.284.357c-.504.524-1.143.818-1.982.818-1.48 0-2.53-1.1-2.53-2.664zm2.423-2.18c-1.196 0-1.794 1.05-1.836 1.93h3.682c-.01-.86-.577-1.93-1.846-1.93zM35.97 28.877l-2.14-5.067h.608l1.846 4.428 1.825-4.428h.618l-2.14 5.067h-.62zM38.727 26.37c0-1.47 1.028-2.654 2.433-2.654 1.543 0 2.392 1.216 2.392 2.685v.147h-4.237c.052 1.102.787 2.014 1.982 2.014.64 0 1.227-.24 1.657-.702l.284.357c-.504.524-1.143.818-1.982.818-1.48 0-2.53-1.1-2.53-2.664zm2.423-2.182c-1.196 0-1.794 1.05-1.836 1.93h3.682c-.01-.86-.576-1.93-1.846-1.93zM44.158 28.94v-6.995h.546v6.996h-.546zM45.25 26.37c0-1.48.945-2.654 2.423-2.654 1.5 0 2.444 1.174 2.444 2.653 0 1.478-.943 2.664-2.444 2.664-1.48 0-2.423-1.185-2.423-2.665zm4.28 0c0-1.123-.66-2.162-1.857-2.162-1.174 0-1.846 1.04-1.846 2.16 0 1.134.67 2.172 1.846 2.172 1.196 0 1.857-1.037 1.857-2.17zM51.207 28.122v2.75h-.545v-6.998h.545v.798c.357-.514 1.007-.922 1.762-.922 1.353 0 2.265 1.028 2.265 2.653 0 1.616-.912 2.665-2.266 2.665-.714 0-1.354-.368-1.763-.946zm3.44-1.72c0-1.227-.64-2.16-1.772-2.16-.702 0-1.373.42-1.667.9v2.51c.294.482.965.92 1.667.92 1.133 0 1.773-.942 1.773-2.17zM55.78 26.402c0-1.468 1.03-2.653 2.434-2.653 1.542 0 2.392 1.215 2.392 2.684v.146H56.37c.05 1.102.785 2.014 1.98 2.014.642 0 1.23-.24 1.66-.703l.282.358c-.503.524-1.143.818-1.982.818-1.48 0-2.53-1.1-2.53-2.664zm2.424-2.18c-1.196 0-1.794 1.048-1.835 1.93h3.68c-.01-.862-.577-1.93-1.846-1.93zM61.152 28.924v-5.067h.545v.87c.43-.565 1.008-.974 1.71-.974v.598c-.094-.02-.167-.02-.272-.02-.514 0-1.207.462-1.437.903v3.692h-.546z" fill="#F9F9F9"/><path d="M1.104 26.095c.812 0 .926-.445.926-.846 0-.32-.046-.64-.092-.96s-.092-.63-.092-.95c0-1.05.687-1.497 1.657-1.497h.24v.63h-.206c-.674 0-.902.365-.902.98 0 .265.034.54.08.813.046.286.08.56.08.87.01.73-.31 1.096-.823 1.233v.02c.515.127.834.516.823 1.247 0 .31-.034.594-.08.868-.046.286-.08.55-.08.823 0 .64.263.994.902.994h.206v.63h-.24c-.948 0-1.657-.413-1.657-1.567 0-.31.046-.628.092-.937s.092-.617.092-.926c0-.354-.114-.846-.926-.846v-.58zM67.022 26.678c-.812 0-.926.49-.926.846 0 .31.046.617.092.926.045.31.09.628.09.937 0 1.154-.72 1.566-1.656 1.566h-.24v-.63h.195c.64-.01.914-.353.914-.993 0-.274-.045-.537-.08-.823-.045-.274-.09-.56-.09-.868 0-.732.32-1.12.822-1.247v-.022c-.503-.137-.823-.502-.823-1.233 0-.31.045-.583.09-.87.035-.272.08-.547.08-.81 0-.617-.24-.972-.902-.983h-.205v-.63h.23c.97 0 1.667.447 1.667 1.498 0 .32-.046.63-.09.95-.047.32-.093.64-.093.96 0 .4.114.845.926.845v.58z" fill="#59FFF7" opacity=".5"/></svg>