<svg xmlns="http://www.w3.org/2000/svg" viewBox="0 0 101.215 30.952"><path d="M-82.37-14.99v-1.5c-.99 1.17-2.7 1.86-4.59 1.86-2.31 0-5.04-1.56-5.04-4.8 0-3.39 2.73-4.68 5.04-4.68 1.92 0 3.63.63 4.59 1.77v-1.95c0-1.47-1.26-2.43-3.18-2.43-1.56 0-3 .57-4.23 1.71l-1.44-2.55c1.77-1.56 4.05-2.28 6.33-2.28 3.3 0 6.33 1.32 6.33 5.49v9.358h-3.81zm0-3.48v-1.8c-.63-.84-1.83-1.26-3.06-1.26-1.5 0-2.73.78-2.73 2.19 0 1.35 1.23 2.13 2.73 2.13 1.23 0 2.43-.42 3.06-1.26zM-58.81-14.99v-9.15c0-1.35-.6-2.31-2.16-2.31-1.35 0-2.46.9-3 1.68v9.78h-3.84v-9.15c0-1.35-.6-2.31-2.16-2.31-1.32 0-2.43.9-3 1.71v9.75h-3.81v-14.49h3.81v1.89c.6-.87 2.52-2.25 4.74-2.25 2.13 0 3.48.99 4.02 2.64.84-1.32 2.76-2.64 4.98-2.64 2.67 0 4.26 1.41 4.26 4.38v10.47h-3.84zM-42-14.99v-2.31c-1.022 1.5-2.88 2.67-5.04 2.67-3.84 0-6.45-2.94-6.45-7.59 0-4.59 2.61-7.62 6.45-7.62 2.07 0 3.9 1.05 5.04 2.7V-35h1.59v20.01H-42zm0-3.63v-7.17c-.84-1.41-2.73-2.64-4.77-2.64-3.21 0-5.07 2.7-5.07 6.21s1.86 6.18 5.07 6.18c2.04 0 3.93-1.2 4.77-2.58zM-38.36-22.25c0-4.23 2.7-7.59 6.93-7.59 4.29 0 6.99 3.36 6.99 7.59s-2.7 7.62-6.99 7.62c-4.23 0-6.93-3.39-6.93-7.62zm12.24 0c0-3.21-1.89-6.18-5.31-6.18-3.36 0-5.28 2.97-5.28 6.18 0 3.24 1.92 6.21 5.28 6.21 3.42 0 5.31-2.97 5.31-6.21z" fill="none"/><path d="M-24.02-5.99c.33.15 2.364-1.248 2.787-1.608.562-.48 1.458-3.52 1.917-4.583l.826-2.69-6.15-14.608h1.74l5.28 12.658 5.22-12.658h1.77l-8.08 20.36c-.174.518-.96 2.667-2.397 3.583-.43.274-3.484 1.62-3.875 1.5l.96-1.956zM-8.99-14.99V-35h1.56v20.01h-1.56zM-4.696-19.24c-1.832-3.777-.667-8.11 2.95-9.865 3.968-1.924 7.673.147 9.505 3.925l.183.38-10.905 5.288c1.51 2.768 4.538 4.2 7.615 2.708 1.647-.8 2.857-2.153 3.388-3.878l1.175.565c-.642 1.978-1.922 3.532-4.08 4.58-3.807 1.845-7.88.32-9.83-3.702zm3.513-8.637C-4.26-26.385-4.49-22.94-3.498-20.62l9.474-4.593c-1.1-2.202-3.893-4.248-7.16-2.664zM-87.023-5.99l-1.62-4.954-1.63 4.953h-.6l-1.883-5.794h.672l1.535 4.918 1.632-4.918h.54l1.63 4.918 1.535-4.918h.672l-1.884 5.793h-.6zM-84.72-8.894c0-1.68 1.175-3.033 2.782-3.033 1.763 0 2.734 1.39 2.734 3.07v.167h-4.846c.06 1.26.9 2.303 2.267 2.303.73 0 1.403-.275 1.896-.804l.323.407c-.575.6-1.308.936-2.267.936-1.69 0-2.89-1.26-2.89-3.047zm2.77-2.494c-1.367 0-2.05 1.2-2.1 2.207h4.21c-.012-.985-.66-2.208-2.11-2.208zM-78.63-5.99v-8h.625v3.142c.468-.66 1.2-1.078 2.015-1.078 1.547 0 2.59 1.21 2.59 3.045 0 1.858-1.055 3.034-2.59 3.034-.863 0-1.607-.468-2.015-1.067v.923h-.624zm2.532-.42c1.295 0 2.026-1.067 2.026-2.472 0-1.402-.73-2.482-2.026-2.482-.804 0-1.57.504-1.907 1.056v2.866c.336.552 1.104 1.03 1.907 1.03zM-66.47-5.99v-.924c-.41.6-1.153 1.067-2.017 1.067-1.535 0-2.578-1.176-2.578-3.035 0-1.834 1.043-3.045 2.578-3.045.828 0 1.56.42 2.016 1.078v-3.14h.634v7.998h-.635zm0-1.452v-2.866c-.337-.563-1.093-1.056-1.91-1.056-1.282 0-2.025 1.08-2.025 2.482 0 1.404.743 2.47 2.026 2.47.818 0 1.573-.478 1.91-1.03zM-65.25-8.894c0-1.68 1.177-3.033 2.783-3.033 1.764 0 2.734 1.39 2.734 3.07v.167h-4.845c.06 1.26.9 2.303 2.267 2.303.73 0 1.402-.275 1.894-.804l.324.407c-.576.6-1.307.936-2.267.936-1.69 0-2.89-1.26-2.89-3.047zm2.77-2.494c-1.366 0-2.05 1.2-2.098 2.207h4.21c-.01-.985-.66-2.208-2.11-2.208zM-57.598-5.99l-2.447-5.794h.696l2.11 5.062 2.088-5.062h.708L-56.89-5.99h-.708zM-53.745-8.894c0-1.68 1.176-3.033 2.782-3.033 1.764 0 2.734 1.39 2.734 3.07v.167h-4.844c.06 1.26.9 2.303 2.267 2.303.73 0 1.403-.275 1.895-.804l.324.407c-.576.6-1.307.936-2.267.936-1.69 0-2.89-1.26-2.89-3.047zm2.77-2.494c-1.367 0-2.05 1.2-2.1 2.207h4.21c-.01-.985-.658-2.208-2.11-2.208zM-47.653-5.99v-8h.624v8h-.623zM-46.445-8.894c0-1.69 1.08-3.033 2.77-3.033 1.717 0 2.795 1.343 2.795 3.033s-1.078 3.047-2.794 3.047c-1.69 0-2.77-1.355-2.77-3.047zm4.893 0c0-1.283-.756-2.47-2.123-2.47-1.343 0-2.11 1.187-2.11 2.47 0 1.296.768 2.482 2.11 2.482 1.367 0 2.123-1.186 2.123-2.482zM-39.682-6.927v3.143h-.623v-8h.623v.912c.408-.588 1.15-1.055 2.015-1.055 1.548 0 2.59 1.175 2.59 3.033 0 1.848-1.042 3.047-2.59 3.047-.815 0-1.547-.42-2.015-1.08zm3.934-1.967c0-1.402-.73-2.47-2.027-2.47-.803 0-1.57.48-1.906 1.03v2.867c.335.552 1.103 1.055 1.905 1.055 1.296 0 2.027-1.077 2.027-2.482zM-33.86-8.894c0-1.68 1.174-3.033 2.78-3.033 1.764 0 2.735 1.39 2.735 3.07v.167h-4.845c.06 1.26.898 2.303 2.266 2.303.732 0 1.404-.275 1.896-.804l.323.407c-.575.6-1.307.936-2.266.936-1.692 0-2.89-1.26-2.89-3.047zm2.768-2.494c-1.367 0-2.05 1.2-2.098 2.207h4.21c-.012-.985-.66-2.208-2.112-2.208z" fill="none"/><path d="M-26.77-5.99v-5.794h.623v.996c.492-.647 1.152-1.115 1.955-1.115v.684c-.107-.022-.19-.022-.312-.022-.588 0-1.38.527-1.644 1.03v4.222h-.622z" fill="none"/><path d="M9.63 20.01v-1.5c-.99 1.17-2.7 1.86-4.59 1.86-2.31 0-5.04-1.56-5.04-4.8 0-3.39 2.73-4.68 5.04-4.68 1.92 0 3.63.63 4.59 1.77v-1.95c0-1.47-1.26-2.43-3.18-2.43-1.56 0-3 .57-4.23 1.71L.78 7.44c1.77-1.56 4.05-2.28 6.33-2.28 3.3 0 6.33 1.32 6.33 5.49v9.358H9.63zm0-3.48v-1.8c-.63-.84-1.83-1.26-3.06-1.26-1.5 0-2.73.78-2.73 2.19 0 1.35 1.23 2.13 2.73 2.13 1.23 0 2.43-.42 3.06-1.26zM33.19 20.01v-9.15c0-1.35-.6-2.31-2.16-2.31-1.35 0-2.46.9-3 1.68v9.778h-3.84V10.86c0-1.35-.6-2.31-2.16-2.31-1.32 0-2.43.9-3 1.71v9.748h-3.81V5.52h3.81v1.89c.6-.87 2.52-2.25 4.74-2.25 2.13 0 3.48.99 4.02 2.64.84-1.32 2.76-2.64 4.98-2.64 2.67 0 4.26 1.41 4.26 4.38v10.47h-3.84zM50 20.01V17.7c-1.022 1.5-2.88 2.67-5.04 2.67-3.84 0-6.45-2.94-6.45-7.59 0-4.59 2.61-7.62 6.45-7.62 2.07 0 3.9 1.05 5.04 2.7V0h1.59v20.01H50zm0-3.63V9.21c-.84-1.41-2.73-2.64-4.77-2.64-3.21 0-5.07 2.7-5.07 6.21s1.86 6.18 5.07 6.18c2.04 0 3.93-1.2 4.77-2.58zM53.64 12.75c0-4.23 2.7-7.59 6.93-7.59 4.29 0 6.99 3.36 6.99 7.59s-2.7 7.62-6.99 7.62c-4.23 0-6.93-3.39-6.93-7.62zm12.24 0c0-3.21-1.89-6.18-5.31-6.18-3.36 0-5.28 2.97-5.28 6.18 0 3.24 1.92 6.21 5.28 6.21 3.42 0 5.31-2.97 5.31-6.21zM68.89 24.24c.33.15.9.24 1.26.24.96 0 1.62-.392 2.22-1.772l1.14-2.58L67.36 5.52h1.74l5.28 12.658L79.6 5.52h1.77l-7.5 17.67c-.78 1.83-2.01 2.7-3.69 2.7-.51 0-1.17-.09-1.56-.21l.27-1.44zM83.01 20.01V0h1.56v20.01h-1.56zM87.304 15.76c-1.832-3.777-.667-8.11 2.95-9.865 3.968-1.924 7.673.147 9.505 3.925l.183.38-10.905 5.287c1.51 2.768 4.538 4.2 7.615 2.708 1.647-.8 2.857-2.153 3.388-3.878l1.175.565c-.642 1.978-1.922 3.532-4.08 4.58-3.807 1.846-7.88.322-9.83-3.7zm3.513-8.637c-3.077 1.492-3.307 4.938-2.315 7.258l9.474-4.593c-1.1-2.202-3.893-4.248-7.16-2.664z" fill="#FF5962"/></svg>