<svg xmlns="http://www.w3.org/2000/svg" viewBox="0 0 437 138.597"><path d="M41.573 88.453v-6.476c-4.27 5.05-11.654 8.032-19.813 8.032C11.79 90.007 0 83.274 0 69.284 0 54.65 11.79 49.08 21.76 49.08c8.29 0 15.673 2.72 19.814 7.64v-8.416c0-6.35-5.44-10.49-13.728-10.49-6.734 0-12.953 2.458-18.26 7.38l-6.22-11.006c7.643-6.738 17.488-9.85 27.33-9.85 14.25 0 27.33 5.702 27.33 23.705v40.41H41.572zm0-15.023v-7.77c-2.715-3.627-7.897-5.44-13.206-5.44-6.476 0-11.79 3.365-11.79 9.453 0 5.827 5.314 9.2 11.79 9.2 5.31 0 10.49-1.817 13.206-5.443zm101.724 15.023v-39.5c0-5.83-2.59-9.975-9.327-9.975-5.827 0-10.62 3.887-12.953 7.252v42.223h-16.58v-39.5c0-5.83-2.588-9.975-9.326-9.975-5.695 0-10.49 3.887-12.952 7.383v42.093H65.716V25.9H82.16v8.153c2.593-3.753 10.882-9.715 20.466-9.715 9.196 0 15.027 4.275 17.355 11.4 3.627-5.7 11.916-11.4 21.504-11.4 11.528 0 18.392 6.088 18.392 18.915v45.2h-16.58zm72.577 0V78.48c-4.406 6.477-12.434 11.53-21.76 11.53-16.58 0-27.846-12.696-27.846-32.766 0-19.817 11.266-32.905 27.845-32.905 8.94 0 16.84 4.536 21.76 11.66V2.064h6.865v86.39h-6.864zm0-15.668V41.828c-3.626-6.088-11.785-11.4-20.593-11.4-13.858 0-21.886 11.657-21.886 26.815 0 15.154 8.028 26.68 21.887 26.68 8.81 0 16.968-5.185 20.594-11.138zm15.718-15.677c0-18.26 11.658-32.77 29.92-32.77 18.52 0 30.176 14.51 30.176 32.77 0 18.265-11.654 32.9-30.177 32.9-18.26 0-29.918-14.635-29.918-32.9zm52.844 0c0-13.855-8.16-26.68-22.924-26.68-14.508 0-22.798 12.825-22.798 26.68 0 13.99 8.29 26.816 22.798 26.816 14.765 0 22.924-12.826 22.924-26.816zm12.995 49.61c1.426.65 3.888 1.037 5.444 1.037 4.145 0 6.995-1.687 9.584-7.644l4.925-11.134L290.828 25.9h7.514l22.794 54.652 22.54-54.653h7.64l-32.38 76.28c-3.366 7.902-8.678 11.663-15.93 11.663-2.2 0-5.05-.392-6.738-.91l1.163-6.215zm60.965-18.265V2.063h6.734v86.39h-6.735zm18.545-18.34c-7.91-16.313-2.88-35.023 12.736-42.596 17.133-8.31 33.13.635 41.04 16.95l.793 1.634-47.082 22.833c6.518 11.952 19.592 18.137 32.878 11.694 7.11-3.448 12.334-9.294 14.627-16.742l5.067 2.44c-2.77 8.54-8.297 15.25-17.62 19.77-16.43 7.97-34.017 1.386-42.44-15.982zm15.166-37.294c-13.286 6.442-14.277 21.318-9.995 31.336l40.906-19.837c-4.75-9.506-16.808-18.34-30.91-11.5z" fill="#FF5962"/><path d="M42.42 126.878l-6.114-18.704-6.16 18.704h-2.263l-7.11-21.876h2.537l5.797 18.57 6.16-18.57H37.3l6.16 18.57 5.796-18.57h2.537l-7.11 21.876H42.42zm9.374-11.12c0-6.34 4.44-11.455 10.51-11.455 6.656 0 10.326 5.25 10.326 11.594v.63h-18.3c.23 4.758 3.397 8.697 8.56 8.697 2.762 0 5.3-1.04 7.158-3.035l1.22 1.54c-2.17 2.264-4.937 3.533-8.558 3.533-6.387 0-10.916-4.757-10.916-11.506zm10.462-9.42c-5.163 0-7.744 4.53-7.925 8.335h15.895c-.044-3.717-2.49-8.334-7.97-8.334zm12.73 20.54V96.67h2.356v11.864c1.766-2.49 4.53-4.07 7.608-4.07 5.84 0 9.784 4.572 9.784 11.497 0 7.022-3.986 11.463-9.784 11.463-3.26 0-6.07-1.766-7.608-4.03v3.484h-2.356zm9.56-1.586c4.89 0 7.65-4.027 7.65-9.33 0-5.296-2.76-9.374-7.65-9.374-3.036 0-5.935 1.903-7.203 3.986v10.824c1.268 2.087 4.167 3.894 7.202 3.894zm35.923 1.45v-3.484c-1.542 2.264-4.353 4.03-7.613 4.03-5.797 0-9.736-4.44-9.736-11.46 0-6.927 3.94-11.5 9.737-11.5 3.127 0 5.886 1.583 7.612 4.072V96.537h2.396v30.206h-2.397zm0-5.48V110.44c-1.27-2.128-4.124-3.986-7.207-3.986-4.846 0-7.652 4.08-7.652 9.374 0 5.303 2.807 9.33 7.653 9.33 3.083 0 5.937-1.808 7.206-3.895zm4.753-5.21c0-6.34 4.44-11.454 10.506-11.454 6.66 0 10.325 5.25 10.325 11.594v.63H127.76c.225 4.758 3.396 8.697 8.56 8.697 2.76 0 5.298-1.04 7.153-3.036l1.224 1.54c-2.176 2.265-4.934 3.534-8.56 3.534-6.382 0-10.914-4.757-10.914-11.506zm10.462-9.418c-5.163 0-7.744 4.53-7.925 8.334h15.898c-.045-3.717-2.493-8.334-7.973-8.334zm19.61 20.11l-9.24-21.877h2.63l7.968 19.117 7.88-19.117h2.675l-9.24 21.876h-2.672zm11.912-10.83c0-6.34 4.44-11.454 10.506-11.454 6.66 0 10.326 5.25 10.326 11.594v.63h-18.296c.225 4.758 3.396 8.697 8.56 8.697 2.76 0 5.298-1.04 7.153-3.034l1.224 1.54c-2.175 2.265-4.933 3.534-8.558 3.534-6.382 0-10.915-4.757-10.915-11.506zm10.463-9.418c-5.163 0-7.744 4.53-7.925 8.334h15.898c-.045-3.717-2.493-8.334-7.973-8.334zm12.985 20.52V96.81h2.356v30.206h-2.355zm4.713-11.102c0-6.383 4.08-11.454 10.462-11.454 6.48 0 10.55 5.07 10.55 11.454 0 6.387-4.07 11.506-10.55 11.506-6.383 0-10.462-5.12-10.462-11.506zm18.48 0c0-4.846-2.854-9.33-8.017-9.33-5.07 0-7.968 4.484-7.968 9.33 0 4.894 2.9 9.374 7.97 9.374 5.16 0 8.016-4.48 8.016-9.374zm7.242 7.57v11.866h-2.353v-30.21h2.353v3.444c1.54-2.22 4.348-3.983 7.608-3.983 5.845 0 9.784 4.437 9.784 11.455 0 6.977-3.94 11.506-9.784 11.506-3.08.002-5.84-1.584-7.608-4.077zm14.855-7.428c0-5.296-2.762-9.33-7.656-9.33-3.032 0-5.93 1.814-7.2 3.894v10.827c1.27 2.084 4.168 3.983 7.2 3.983 4.892 0 7.655-4.07 7.655-9.374zm4.894 0c0-6.34 4.435-11.454 10.505-11.454 6.656 0 10.326 5.25 10.326 11.594v.63h-18.294c.225 4.758 3.393 8.697 8.556 8.697 2.766 0 5.303-1.04 7.158-3.035l1.22 1.54c-2.17 2.265-4.933 3.534-8.555 3.534-6.387 0-10.916-4.757-10.916-11.506zm10.458-9.418c-5.163 0-7.744 4.53-7.92 8.334h15.893c-.044-3.717-2.492-8.334-7.972-8.334zm12.73 20.308V105.07h2.353v3.76c1.86-2.444 4.353-4.21 7.384-4.21v2.58c-.406-.088-.723-.088-1.176-.088-2.22 0-5.21 1.99-6.206 3.894v15.938h-2.354z" fill="#2C2C2C"/><path d="M6.49 114.73c3.503 0 3.996-1.924 3.996-3.652 0-1.383-.198-2.762-.396-4.145s-.396-2.715-.396-4.098c0-4.537 2.964-6.464 7.155-6.464h1.036v2.716h-.89c-2.91 0-3.896 1.58-3.896 4.242 0 1.138.148 2.323.346 3.504.198 1.235.346 2.42.346 3.753.046 3.158-1.332 4.735-3.554 5.33v.096c2.222.545 3.6 2.223 3.554 5.38 0 1.333-.148 2.565-.346 3.75-.198 1.234-.346 2.37-.346 3.553 0 2.762 1.134 4.292 3.896 4.292h.89v2.715H16.85c-4.095 0-7.156-1.78-7.156-6.763 0-1.332.198-2.71.396-4.043.198-1.332.396-2.665.396-3.997 0-1.53-.493-3.65-3.997-3.65v-2.518zM289.373 117.246c-3.504 0-3.997 2.12-3.997 3.65 0 1.333.198 2.666.396 3.998.194 1.332.392 2.71.392 4.043 0 4.984-3.107 6.763-7.155 6.763h-1.034v-2.715h.84c2.76-.05 3.946-1.53 3.946-4.292 0-1.185-.198-2.32-.346-3.554-.198-1.186-.396-2.417-.396-3.75 0-3.157 1.383-4.835 3.554-5.38v-.096c-2.17-.595-3.554-2.17-3.554-5.33 0-1.33.198-2.516.396-3.752.148-1.18.346-2.365.346-3.504 0-2.66-1.037-4.19-3.9-4.242h-.885V96.37h.987c4.19 0 7.202 1.928 7.202 6.465 0 1.383-.198 2.715-.392 4.098-.198 1.383-.396 2.762-.396 4.145 0 1.73.493 3.65 3.997 3.65v2.518z" fill="#59FFF7" opacity=".5"/></svg>