<svg id="Layer_1" data-name="Layer 1" xmlns="http://www.w3.org/2000/svg" viewBox="0 0 5.98 6.08"><defs><style>.cls-1{fill:#ef767a;}</style></defs><title>Artboard 8</title><path class="cls-1" d="M3.5,3.77V6a2.78,2.78,0,0,1-.48,0A2.91,2.91,0,0,1,.86,5.21,3,3,0,0,1,0,3,3,3,0,0,1,.87.88,2.85,2.85,0,0,1,3,0,2.9,2.9,0,0,1,5.18.83,3.12,3.12,0,0,1,6,3.09V6H3.83V3.25a1.15,1.15,0,0,0-.22-.74A.72.72,0,0,0,3,2.24a.79.79,0,0,0-.59.25.82.82,0,0,0-.25.6.83.83,0,0,0,.22.6A.75.75,0,0,0,3,3.92,1,1,0,0,0,3.5,3.77Z"/></svg>